inDegrees=yes
name=ik_S42_A05_T02
DataType=double
version=3
OpenSimVersion=4.3-2021-08-27-4bc7ad9
endheader
time	pelvis_tilt	pelvis_list	pelvis_rotation	pelvis_tx	pelvis_ty	pelvis_tz	hip_flexion_r	hip_adduction_r	hip_rotation_r	knee_angle_r	knee_angle_r_beta	ankle_angle_r	subtalar_angle_r	mtp_angle_r	hip_flexion_l	hip_adduction_l	hip_rotation_l	knee_angle_l	knee_angle_l_beta	ankle_angle_l	subtalar_angle_l	mtp_angle_l	lumbar_extension	lumbar_bending	lumbar_rotation	arm_flex_r	arm_add_r	arm_rot_r	elbow_flex_r	pro_sup_r	wrist_flex_r	wrist_dev_r	arm_flex_l	arm_add_l	arm_rot_l	elbow_flex_l	pro_sup_l	wrist_flex_l	wrist_dev_l
22.19999999999962	-4.97703259889731	-2.88280860487489	20.59169397255524	0	0.9399999999999999	0	44.55017808410385	-10.05706048993049	-10.0966347134777	54.82193896800425	0.9568233373190563	0	0	0	44.55017808410385	-10.05706048993049	-10.0966347134777	54.82193896800425	0.9568233373190563	0	0	0	-4.481984727938615	-2.080197672733547	7.917888396966442	59.70741182489117	-15.32403483015487	-9.496829518067464	46.77727034925901	90.56631760817478	0	-5.38806921148701e-36	34.00938004497881	-2.830798790552778	13.95846570255301	38.39564383137093	122.8920983010033	0	-5.38806921148701e-36
22.21999999999962	-4.912783938482538	-2.819526191240133	20.64142489100186	0	0.9399999999999999	0	44.55082063034785	-10.05695092147058	-10.09643470128015	54.82212914983356	0.9568266566181554	0	0	0	44.55082063034785	-10.05695092147058	-10.09643470128015	54.82212914983356	0.9568266566181554	0	0	0	-4.401316104997166	-2.041545443928188	7.900034586692782	59.46800933738343	-15.33871537398165	-9.49059376755671	46.73597287921012	90.55802466248197	0	0	33.83136205591344	-2.784485513364083	13.94284210262276	38.39730538577832	122.8891628377502	0	0
22.23999999999961	-4.872847522608815	-2.794422562194324	20.71380561634161	0	0.9399999999999999	0	44.55097483085919	-10.05688325724273	-10.09636097820191	54.82217041639861	0.9568273768555864	0	0	0	44.55097483085919	-10.05688325724273	-10.09636097820191	54.82217041639861	0.9568273768555864	0	0	0	-4.356817693160151	-2.028811748984351	7.865581950457718	59.08574590672171	-15.25328800332043	-9.562665284332045	47.28194272046012	90.43396737327329	0	0	33.72589079708808	-2.727900267578788	13.90353835700373	38.36797494266524	122.9781287754349	0	0
22.25999999999961	-4.810527088007198	-2.737157240447178	20.87652334370204	0	0.9399999999999999	0	44.55111562122193	-10.05682223420724	-10.09629420027663	54.82220849303948	0.9568280414183378	0	0	0	44.55111562122193	-10.05682223420724	-10.09629420027663	54.82220849303948	0.9568280414183378	0	0	0	-4.281509529316711	-1.990394242356281	7.794720470467454	58.41824591484663	-15.10374251651354	-9.763149476375304	48.42450638733953	90.82319289171518	0	0	33.5714523423101	-2.63133159725665	13.90809727051119	38.33908108240514	122.9918589681841	0	0
22.27999999999961	-4.743140317772808	-2.666336563249868	20.93452194664505	0	0.9399999999999999	0	44.55134507768505	-10.05672153463575	-10.09618445866179	54.82226981033602	0.9568291116070508	0	0	0	44.55134507768505	-10.05672153463575	-10.09618445866179	54.82226981033602	0.9568291116070508	0	0	0	-4.188497975289565	-1.958536262443247	7.915319094010863	56.58603536922722	-15.04764161283967	-10.66845809145432	50.37203627315323	91.60425905253359	0	0	33.3741683599792	-2.491563427057457	13.96551103443496	38.33471615624108	122.9992016180932	0	0
22.29999999999961	-4.760573682195305	-2.628139844913367	20.75438147733594	0	0.9399999999999999	0	44.55154172302932	-10.0566361323062	-10.09609103729448	54.82232281689069	0.9568300367459549	0	0	0	44.55154172302932	-10.0566361323062	-10.09609103729448	54.82232281689069	0.9568300367459549	0	0	0	-4.181969248561849	-1.938713144764405	8.179579030563129	55.51104226572306	-15.50813419936093	-11.15897192648621	52.75965415044227	92.62026051341755	0	0	33.33011267694522	-2.38805807626791	13.90995374515135	38.35876205398033	123.0350506233161	0	0
22.31999999999961	-4.774492323528456	-2.609695693719153	20.54849998112541	0	0.9399999999999999	0	44.55181884088278	-10.05651510765601	-10.09595887090826	54.82239705140282	0.9568313323826101	0	0	0	44.55181884088278	-10.05651510765601	-10.09595887090826	54.82239705140282	0.9568313323826101	0	0	0	-4.181496946956729	-1.934487718593846	8.42350845368323	54.13763282590113	-15.94777786974925	-11.60633384525089	55.86182771189261	93.53829792499836	0	0	33.26896338157354	-2.328765631796326	13.84152628751173	38.41853355406599	123.0491718348116	0	0
22.33999999999961	-4.805069001347499	-2.577715429037618	20.62676503018485	0	0.9399999999999999	0	44.55242229642445	-10.05625322182156	-10.0956719870777	54.82255888418281	0.9568341568974587	0	0	0	44.55242229642445	-10.05625322182156	-10.0956719870777	54.82255888418281	0.9568341568974587	0	0	0	-4.204733859225483	-1.892723787253843	8.403769258997302	52.34394792883295	-16.49519138206924	-11.66615441072095	61.73586216090852	94.39286694715028	0	0	33.10662717335863	-2.271211301972214	13.69518837909398	38.57077092170794	123.1708737745034	0	0
22.35999999999961	-4.845241573573103	-2.546193111704771	20.62791951028418	0	0.9399999999999999	0	44.55273789553207	-10.05611530585715	-10.09552128692853	54.82264304844434	0.956835625840935	0	0	0	44.55273789553207	-10.05611530585715	-10.09552128692853	54.82264304844434	0.956835625840935	0	0	0	-4.23217149064555	-1.848370637504782	8.424802828922688	50.23693135941669	-16.9378957223049	-11.58484178959347	65.7914181282253	94.29225458486633	0	0	33.15715352944981	-2.183630290622317	13.66948014839895	38.6069925719307	123.1246616888286	0	0
22.37999999999961	-4.87778604439858	-2.507814581816465	20.67451223239896	0	0.9399999999999999	0	44.55283479834095	-10.05607390380622	-10.09547569056363	54.82266941054115	0.956836085946322	0	0	0	44.55283479834095	-10.05607390380622	-10.09547569056363	54.82266941054115	0.956836085946322	0	0	0	-4.252766725118431	-1.793220878622935	8.341022360415753	50.32646088944465	-16.95661438733901	-11.31389514431737	66.4918677959681	94.55109354925463	0	0	32.98993216776574	-2.066156231276852	13.53331799587506	38.81125897787976	122.978208461867	0	0
22.39999999999961	-4.899384843002419	-2.503031352290684	20.68374942597067	0	0.9399999999999999	0	44.55312368839216	-10.0559476998064	-10.09533772121102	54.82274633138383	0.95683742846829	0	0	0	44.55312368839216	-10.0559476998064	-10.09533772121102	54.82274633138383	0.95683742846829	0	0	0	-4.274085815439005	-1.776168822860225	8.307717785322385	47.92066270423503	-17.3695003559056	-11.09733223226748	70.45354176173298	94.29965354085746	0	0	32.89897761229012	-2.023202788947559	13.44153071570843	38.95747572573189	122.9792796653962	0	0
22.41999999999961	-4.934299147168572	-2.467041917447367	20.67268957854961	0	0.9399999999999999	0	44.55352991186624	-10.05577003672978	-10.09514351010255	54.82285421503848	0.9568393113932727	0	0	0	44.55352991186624	-10.05577003672978	-10.09514351010255	54.82285421503848	0.9568393113932727	0	0	0	-4.298899139765449	-1.721479898266634	8.203806938727677	45.45706768867465	-17.70734406387689	-10.52829700174507	73.97367866800656	94.35408159403678	0	0	32.92739404479668	-2.003290641239877	13.29820676152954	39.04609428656057	122.8517949909322	0	0
